HIERARCHY
ROOT reference
{
  OFFSET 0 0 0
  CHANNELS 6 Xposition Yposition Zposition Zrotation Xrotation Yrotation
  JOINT Hips
  {
    OFFSET 3.65668 79.787 140.355
    CHANNELS 6 Xposition Yposition Zposition Zrotation Xrotation Yrotation
    JOINT Spine
    {
      OFFSET 0 7.31558 0
      CHANNELS 6 Xposition Yposition Zposition Zrotation Xrotation Yrotation
      JOINT Spine1
      {
        OFFSET 0 21.7428 0
        CHANNELS 6 Xposition Yposition Zposition Zrotation Xrotation Yrotation
        JOINT Neck
        {
          OFFSET 0 21.6535 1.9685
          CHANNELS 6 Xposition Yposition Zposition Zrotation Xrotation Yrotation
          JOINT Head
          {
            OFFSET 0 12.49 -1.78429
            CHANNELS 6 Xposition Yposition Zposition Zrotation Xrotation Yrotation
            End Site
            {
              OFFSET 0 22.3036 0
            }
          }
        }
        JOINT LeftShoulder
        {
          OFFSET 3.56546 21.4407 -0.045508
          CHANNELS 6 Xposition Yposition Zposition Zrotation Xrotation Yrotation
          JOINT LeftArm
          {
            OFFSET 5.86532 0 0
            CHANNELS 6 Xposition Yposition Zposition Zrotation Xrotation Yrotation
            JOINT LeftForeArm
            {
              OFFSET 30.0831 0 0
              CHANNELS 6 Xposition Yposition Zposition Zrotation Xrotation Yrotation
              JOINT LeftHand
              {
                OFFSET 21.3133 0 0
                CHANNELS 6 Xposition Yposition Zposition Zrotation Xrotation Yrotation
                End Site
                {
                  OFFSET 13.3822 0 0
                }
              }
            }
          }
        }
        JOINT RightShoulder
        {
          OFFSET -3.55605 21.4407 -0.045508
          CHANNELS 6 Xposition Yposition Zposition Zrotation Xrotation Yrotation
          JOINT RightArm
          {
            OFFSET -5.86532 0 0
            CHANNELS 6 Xposition Yposition Zposition Zrotation Xrotation Yrotation
            JOINT RightForeArm
            {
              OFFSET -30.0831 0 0
              CHANNELS 6 Xposition Yposition Zposition Zrotation Xrotation Yrotation
              JOINT RightHand
              {
                OFFSET -21.3133 0 0
                CHANNELS 6 Xposition Yposition Zposition Zrotation Xrotation Yrotation
                End Site
                {
                  OFFSET -13.3822 0 0
                }
              }
            }
          }
        }
      }
    }
    JOINT LeftUpLeg
    {
      OFFSET 8.92144 0 0
      CHANNELS 6 Xposition Yposition Zposition Zrotation Xrotation Yrotation
      JOINT LeftLeg
      {
        OFFSET 0 -39.6329 0
        CHANNELS 6 Xposition Yposition Zposition Zrotation Xrotation Yrotation
        JOINT LeftFoot
        {
          OFFSET 0 -38.0584 0
          CHANNELS 6 Xposition Yposition Zposition Zrotation Xrotation Yrotation
          JOINT LeftToeBase
          {
            OFFSET 0 -5.79894 13.3822
            CHANNELS 6 Xposition Yposition Zposition Zrotation Xrotation Yrotation
            End Site
            {
              OFFSET 0 0 3.56858
            }
          }
        }
      }
    }
    JOINT RightUpLeg
    {
      OFFSET -8.92144 0 0
      CHANNELS 6 Xposition Yposition Zposition Zrotation Xrotation Yrotation
      JOINT RightLeg
      {
        OFFSET 0 -39.6329 0
        CHANNELS 6 Xposition Yposition Zposition Zrotation Xrotation Yrotation
        JOINT RightFoot
        {
          OFFSET 0 -38.0584 0
          CHANNELS 6 Xposition Yposition Zposition Zrotation Xrotation Yrotation
          JOINT RightToeBase
          {
            OFFSET 0 -5.79894 13.3822
            CHANNELS 6 Xposition Yposition Zposition Zrotation Xrotation Yrotation
            End Site
            {
              OFFSET 0 0 3.56858
            }
          }
        }
      }
    }
  }
}
MOTION
Frames:	5
Frame Time:	0.004
0 0 0 0 0 -0 -17.1697 77.0851 -204.192 -1.11516 -2.1493 8.97925 0 7.31558 -2.84217e-014 0.904566 -2.45217 0.067895 -7.10543e-015 21.7428 2.84217e-014 0.191854 -5.92435 0.0574463 3.55271e-015 21.6535 1.9685 -3.05492 15.5088 1.85244 -3.55271e-015 12.49 -1.78429 -0.713644 0.858609 1.85319 3.56546 21.4407 -0.045508 12.6548 1.35932 -8.96555 5.86532 2.84217e-014 0 -17.2561 6.664 2.26805 30.0831 2.84217e-014 0 -3.46006 0.784136 5.86843 21.3133 0 0 0.958338 0.958498 -0.347924 -3.55605 21.4407 -0.045508 -14.6894 0.037901 -3.79227 -5.86532 0 0 15.5212 1.40767 -2.25008 -30.0831 0 2.84217e-014 0.44573 2.30688 -4.7425 -21.3133 -2.84217e-014 2.84217e-014 -4.64379 2.07397 6.19794 8.92144 0 0 -0.0305832 4.62984 -3.07698 -1.77636e-015 -39.6329 2.84217e-014 -2.4545 0.149722 -2.10737 -1.77636e-015 -38.0584 0 3.37168 -7.43506 4.79114 0 -5.79894 13.3822 0 0 -0 -8.92144 -1.42109e-014 0 0.534306 7.64146 5.23522 0 -39.6329 -2.84217e-014 2.93184 -2.28099 -2.42273 0 -38.0584 0 -3.58578 -7.23948 -15.2857 0 -5.79894 13.3822 -9.93923e-017 0 -7.95139e-016 
0 0 0 0 0 -0 -17.1697 77.0851 -204.192 -1.11516 -2.1493 8.97925 0 7.31558 -2.84217e-014 0.917108 -2.44055 0.0678944 -3.55271e-015 21.7428 0 0.151327 -5.93834 0.0574478 0 21.6535 1.9685 -3.02365 15.507 1.82943 -7.10543e-015 12.49 -1.78429 -0.697303 0.86509 1.83134 3.56546 21.4407 -0.045508 12.6855 1.36963 -8.94443 5.86532 0 0 -17.2512 6.6753 2.25195 30.0831 0 0 -3.44269 0.769837 5.86841 21.3133 1.42109e-014 0 0.938123 0.943348 -0.370705 -3.55605 21.4407 -0.045508 -14.6577 0.043909 -3.7773 -5.86532 0 0 15.5212 1.40767 -2.25008 -30.0831 0 0 0.433609 2.31122 -4.74251 -21.3133 0 0 -4.61867 2.07837 6.21739 8.92144 0 0 -0.0305832 4.62984 -3.07698 -1.77636e-015 -39.6329 2.84217e-014 -2.45442 0.149719 -2.13665 -1.77636e-015 -38.0584 0 3.37954 -7.43466 4.82803 -3.55271e-015 -5.79894 13.3822 -9.93923e-017 7.95139e-016 -0 -8.92144 -1.42109e-014 0 0.536877 7.64146 5.23522 3.55271e-015 -39.6329 0 2.93203 -2.2828 -2.41596 0 -38.0584 -2.84217e-014 -3.59459 -7.22375 -15.2618 0 -5.79894 13.3822 4.96962e-017 7.95139e-016 -0 
0 0 0 0 0 -0 -17.1697 77.0851 -204.192 -1.11516 -2.1493 8.97925 0 7.31558 -2.84217e-014 0.915422 -2.4327 0.067894 -7.10543e-015 21.7428 0 0.152242 -5.94064 0.057448 -3.55271e-015 21.6535 1.9685 -3.0317 15.4985 1.80215 0 12.49 -1.78429 -0.665176 0.879568 1.80767 3.56546 21.4407 -0.045508 12.6714 1.35203 -8.92055 5.86532 0 0 -17.2243 6.6845 2.23021 30.0831 0 0 -3.43708 0.75779 5.86028 21.3133 1.42109e-014 0 0.970621 0.930756 -0.357149 -3.55605 21.4407 -0.045508 -14.6655 0.019873 -3.8032 -5.86532 0 0 15.5209 1.40768 -2.23764 -30.0831 0 0 0.408489 2.32666 -4.73736 -21.3133 2.84217e-014 0 -4.54898 2.09658 6.21559 8.92144 0 0 -0.028398 4.62984 -3.07698 -1.77636e-015 -39.6329 0 -2.45435 0.151748 -2.13546 3.55271e-015 -38.0584 -2.84217e-014 3.3656 -7.43467 4.82756 0 -5.79894 13.3822 9.93923e-017 -1.59028e-015 -1.59028e-015 -8.92144 -1.42109e-014 0 0.542236 7.64132 5.24685 0 -39.6329 0 2.93002 -2.29401 -2.45438 -3.55271e-015 -38.0584 0 -3.56477 -7.218 -15.2671 0 -5.79894 13.3822 1.49089e-016 7.95139e-016 -0 
0 0 0 0 0 -0 -17.1697 77.0851 -204.192 -1.11692 -2.13813 8.97918 -3.55271e-015 7.31558 0 0.907493 -2.43188 0.064591 0 21.7428 -2.84217e-014 0.166633 -5.96576 0.053979 -3.55271e-015 21.6535 1.9685 -3.04334 15.5185 1.77636 3.55271e-015 12.49 -1.78429 -0.650311 0.865723 1.78226 3.56546 21.4407 -0.045508 12.6504 1.35826 -8.90973 5.86532 2.84217e-014 2.84217e-014 -17.1743 6.7238 2.18534 30.0831 0 0 -3.48708 0.734285 5.93237 21.3133 -1.42109e-014 0 1.00666 0.911591 -0.394712 -3.55605 21.4407 -0.045508 -14.6649 0.045082 -3.79345 -5.86532 0 0 15.5121 1.39392 -2.24388 -30.0831 0 0 0.39421 2.3287 -4.73323 -21.3133 0 0 -4.54102 2.09826 6.21788 8.92144 0 0 -0.022043 4.62034 -3.06606 1.77636e-015 -39.6329 -2.84217e-014 -2.45497 0.13505 -2.13729 -1.77636e-015 -38.0584 0 3.37086 -7.43497 4.79991 0 -5.79894 13.3822 9.93923e-017 -1.59028e-015 3.18055e-015 -8.92144 -1.42109e-014 0 0.549532 7.62882 5.24017 3.55271e-015 -39.6329 2.84217e-014 2.93222 -2.28808 -2.40572 7.10543e-015 -38.0584 0 -3.57142 -7.21535 -15.3102 0 -5.79894 13.3822 0 0 -0 
0 0 0 0 0 -0 -17.169 77.0847 -204.195 -1.12001 -2.1272 8.98069 0 7.31558 2.84217e-014 0.87507 -2.43541 0.051407 0 21.7428 0 0.23913 -5.97974 0.046681 0 21.6535 1.9685 -3.10368 15.5189 1.76211 -3.55271e-015 12.49 -1.78429 -0.629512 0.884387 1.77078 3.56546 21.4407 -0.045508 12.6003 1.35296 -8.87811 5.86532 2.84217e-014 0 -17.1813 6.69356 2.21476 30.0831 0 0 -3.40567 0.748006 5.84781 21.3133 -1.42109e-014 0 0.989718 0.91898 -0.350782 -3.55605 21.4407 -0.045508 -14.7627 -0.054335 -3.72433 -5.86532 0 0 15.5537 1.45255 -2.32624 -30.0831 0 0 0.381738 2.34188 -4.72106 -21.3133 2.84217e-014 0 -4.51243 2.11243 6.22091 8.92144 1.42109e-014 0 -0.017625 4.60503 -3.06842 0 -39.6329 0 -2.46197 0.141566 -2.14126 0 -38.0584 0 3.37564 -7.43842 4.80725 0 -5.79894 13.3822 -9.93923e-017 -7.95139e-016 -1.59028e-015 -8.92144 1.42109e-014 0 0.547234 7.6162 5.25322 3.55271e-015 -39.6329 -2.84217e-014 2.93741 -2.28837 -2.44669 -3.55271e-015 -38.0584 0 -3.5616 -7.21589 -15.284 -7.10543e-015 -5.79894 13.3822 9.93923e-017 -7.95139e-016 -0 
